<svg version="1.1" id="Layer_1" xmlns="http://www.w3.org/2000/svg" xmlns:xlink="http://www.w3.org/1999/xlink" x="0px" y="0px"
	 width="100%" viewBox="0 0 464 439" enable-background="new 0 0 464 439" xml:space="preserve">
<path fill="#000000" opacity="1.000000" stroke="none" 
	d="
M327.000000,440.000000 
	C219.362991,440.000000 112.225952,439.983032 5.089029,440.081665 
	C1.860061,440.084656 0.891627,439.697845 0.894727,436.091064 
	C1.018311,292.297668 1.013218,148.504074 0.915055,4.710615 
	C0.912858,1.492700 1.758481,0.927616 4.787405,0.929221 
	C156.911942,1.009826 309.036499,1.008097 461.161041,0.939243 
	C464.066620,0.937928 465.096069,1.313382 465.093536,4.659057 
	C464.984863,148.619125 464.986633,292.579315 465.089417,436.539398 
	C465.091644,439.629120 464.336578,440.081207 461.462311,440.074371 
	C416.808380,439.968048 372.154175,440.000000 327.000000,440.000000 
z"/>
<path fill="#F3F3F3" opacity="1.000000" stroke="none" 
	d="
M363.997070,241.294739 
	C368.827484,241.295074 373.159027,241.329269 377.489746,241.284225 
	C380.559937,241.252289 383.644348,241.716522 383.544189,245.486511 
	C383.447601,249.122269 380.433899,249.632050 377.330811,249.626923 
	C354.508789,249.589157 331.686646,249.606628 308.864563,249.606705 
	C296.870483,249.606750 284.873596,249.748566 272.884094,249.514679 
	C269.566925,249.449982 267.797577,250.611252 266.189606,253.341141 
	C262.309845,259.927917 258.036835,266.282227 254.112518,272.843964 
	C252.392090,275.720642 250.270081,276.978363 246.842484,276.961975 
	C223.521164,276.850281 200.198730,276.842468 176.877563,276.968262 
	C173.343018,276.987335 171.442596,275.546295 169.895981,272.564636 
	C165.230957,263.571167 160.291840,254.720016 155.611160,245.734421 
	C154.393356,243.396576 153.007034,242.350021 150.227783,242.411240 
	C141.403091,242.605652 132.569962,242.572342 123.743271,242.430054 
	C121.008781,242.385986 119.744797,243.043655 118.935432,245.966171 
	C114.592232,261.648804 100.621002,270.496857 84.633987,268.027496 
	C70.312134,265.815338 59.595463,252.575943 59.887760,237.455994 
	C60.180592,222.308456 71.812569,209.961502 87.401749,208.250793 
	C101.122665,206.745102 115.086533,216.191833 118.743797,230.051804 
	C119.700798,233.678558 121.159904,234.353363 124.472198,234.286575 
	C134.296692,234.088470 144.129944,234.334167 153.955078,234.152985 
	C157.430725,234.088867 159.459518,235.387634 161.027420,238.422379 
	C165.677902,247.423599 170.610580,256.278809 175.283463,265.268799 
	C176.576630,267.756683 178.077148,268.815125 181.048584,268.793579 
	C201.703979,268.643616 222.361359,268.656586 243.017090,268.781433 
	C245.875473,268.798706 247.556793,267.938690 249.011765,265.479309 
	C252.819687,259.042816 257.097900,252.880142 260.796997,246.385254 
	C262.963745,242.580856 265.669220,241.187607 270.044434,241.210007 
	C301.194885,241.369553 332.346558,241.294876 363.997070,241.294739 
z"/>
<path fill="#F8F8F8" opacity="1.000000" stroke="none" 
	d="
M185.103790,116.890968 
	C179.980896,115.957428 177.937790,117.623741 176.467285,122.459213 
	C172.227371,136.401428 157.549530,144.959793 143.626007,142.456665 
	C128.023392,139.651703 117.619072,127.153252 117.960526,111.625359 
	C118.269936,97.554451 129.500977,84.811317 143.212326,82.973778 
	C158.926041,80.867897 172.897629,89.661057 176.865280,104.642082 
	C177.824173,108.262596 179.431137,108.832451 182.700027,108.799507 
	C198.191116,108.643364 213.685547,108.817192 229.176636,108.661118 
	C232.563370,108.626999 234.684952,109.732521 236.556732,112.546692 
	C242.175827,120.994942 248.194992,129.178268 253.763779,137.658188 
	C255.878937,140.879074 258.109924,142.235855 262.136139,142.216568 
	C299.950684,142.035431 337.766510,142.108231 375.581940,142.111893 
	C377.080109,142.112045 378.605530,141.983505 380.070038,142.217117 
	C382.283905,142.570236 383.787292,144.049728 383.744843,146.274200 
	C383.702881,148.470551 382.301361,149.964340 379.959656,150.175308 
	C378.636536,150.294525 377.298096,150.266556 375.966553,150.266693 
	C336.818420,150.270828 297.669983,150.198807 258.522583,150.370193 
	C254.151642,150.389313 251.490646,148.997162 249.144852,145.401672 
	C243.601929,136.905853 237.593246,128.714935 231.988052,120.258125 
	C230.340317,117.772102 228.619064,116.767899 225.568481,116.810654 
	C212.244080,116.997368 198.915573,116.890968 185.103790,116.890968 
z"/>
<path fill="#F7F7F7" opacity="1.000000" stroke="none" 
	d="
M133.718018,321.915344 
	C137.415527,307.685547 148.844879,298.372437 162.552185,298.095337 
	C176.261856,297.818176 188.259369,306.774139 191.998184,320.479065 
	C192.835052,323.546600 194.214920,324.177277 197.112625,324.167847 
	C227.266510,324.069672 257.421112,324.048737 287.574615,324.194641 
	C290.719299,324.209839 292.287048,323.109070 293.749176,320.528534 
	C298.910126,311.420074 304.378510,302.485840 309.544373,293.380096 
	C311.220032,290.426544 313.311920,289.159515 316.737671,289.177643 
	C336.895447,289.284363 357.054108,289.247650 377.212372,289.211914 
	C380.463776,289.206177 383.766083,289.639252 383.671753,293.592133 
	C383.583893,297.275146 380.318420,297.488953 377.303741,297.483429 
	C358.478241,297.448914 339.652191,297.532349 320.827545,297.399414 
	C317.773010,297.377869 316.088684,298.342926 314.581604,301.034149 
	C309.629456,309.877319 304.186615,318.447144 299.292999,327.320923 
	C297.263489,331.001099 294.850220,332.385223 290.619812,332.362518 
	C259.466888,332.195435 228.312561,332.315643 197.159180,332.202393 
	C194.172943,332.191528 192.883041,332.978180 192.050171,335.963043 
	C187.544952,352.108887 171.929443,361.461395 156.220169,357.674255 
	C140.369370,353.853027 130.716934,338.761414 133.718018,321.915344 
z"/>
<path fill="#F7F7F7" opacity="1.000000" stroke="none" 
	d="
M352.999512,197.359070 
	C319.860321,197.359070 287.221008,197.407654 254.582306,197.285767 
	C251.232025,197.273254 249.777985,197.993835 248.818390,201.541000 
	C244.787689,216.440506 230.679718,225.208633 215.043823,223.021805 
	C200.941803,221.049500 189.914673,207.980072 189.925247,193.251129 
	C189.936218,177.967712 201.056915,165.497528 216.632416,163.303070 
	C230.677444,161.324249 245.073425,170.824356 248.818527,185.154587 
	C249.806107,188.933517 251.541550,189.215973 254.664001,189.210297 
	C294.796722,189.137161 334.929565,189.161880 375.062408,189.162323 
	C376.394592,189.162338 377.728088,189.130249 379.058655,189.178268 
	C381.755280,189.275604 383.733429,190.655869 383.724213,193.338120 
	C383.714874,196.061798 381.707367,197.345627 378.977814,197.345535 
	C370.485046,197.345261 361.992279,197.353897 352.999512,197.359070 
z"/>
<path fill="#030303" opacity="1.000000" stroke="none" 
	d="
M107.862549,226.323517 
	C113.291306,235.155655 113.335915,243.723907 107.405983,251.760742 
	C101.847031,259.294800 93.911057,261.946869 84.900497,259.830231 
	C75.842781,257.702484 70.381294,251.571365 68.477219,242.444183 
	C66.544365,233.179047 71.748100,223.233368 80.608063,219.022980 
	C90.169327,214.479324 100.154007,217.056900 107.862549,226.323517 
z"/>
<path fill="#030303" opacity="1.000000" stroke="none" 
	d="
M150.716278,134.296448 
	C137.159271,134.818604 127.534058,126.650261 126.406105,114.111977 
	C125.442200,103.397270 133.611374,92.985733 144.423737,91.148682 
	C155.949310,89.190460 166.818787,96.524231 169.549896,108.101593 
	C172.402802,120.195282 164.144241,131.928116 150.716278,134.296448 
z"/>
<path fill="#030303" opacity="1.000000" stroke="none" 
	d="
M182.608887,318.691650 
	C187.262726,330.657227 184.002686,341.451447 174.301117,347.191803 
	C165.106766,352.632050 153.073105,350.573120 146.363571,342.411774 
	C138.232651,332.521454 140.060623,318.220032 150.405151,310.791870 
	C161.241455,303.010590 175.004410,306.265900 182.608887,318.691650 
z"/>
<path fill="#030303" opacity="1.000000" stroke="none" 
	d="
M208.959732,212.251221 
	C199.638916,205.615570 196.226135,196.587021 199.150833,186.946899 
	C201.792694,178.239044 209.942368,171.974915 219.177292,171.553833 
	C228.413391,171.132721 236.780624,176.606995 240.258469,185.346268 
	C243.544662,193.603943 241.500534,203.064148 235.105820,209.192612 
	C228.159409,215.849838 218.959518,217.010300 208.959732,212.251221 
z"/>
</svg>